#!OML:ASF F:\VICON\USERDATA\INSTALL\rory3\rory3.ASF
:FULLY-SPECIFIED
:DEGREES
435
root 15.8669 15.831 -13.0826 -190.823 61.0856 -192.668
lowerback 5.27125 -1.38823 -6.02686
upperback -1.71044 -2.31032 -1.60443
thorax -4.56894 -0.976396 1.91765
lowerneck -9.38906 -10.4573 -14.8428
upperneck 26.6751 -14.4066 11.8285
head 12.3688 -6.42571 4.90866
rclavicle -8.44563e-015 -2.72335e-014
rhumerus -41.381 -0.0969004 -85.2899
rradius 29.0482
rwrist 8.20411
rhand -18.0546 13.6814
rfingers 7.12502
rthumb 8.21762 -16.1388
lclavicle -8.44563e-015 -2.72335e-014
lhumerus -31.8368 5.76578 84.4816
lradius 25.9395
lwrist -1.68887
lhand -11.9629 13.1142
lfingers 7.12502
lthumb 14.0927 42.6163
rfemur -26.166 -2.42916 22.2424
rtibia 29.3855
rfoot -31.7061 -33.57
rtoes 33.2726
lfemur 14.4266 0.957313 -33.1116
ltibia 8.50789
lfoot -11.4113 15.4678
ltoes -11.6605
436
root 15.9545 15.8424 -13.1164 -190.242 61.3942 -192.254
lowerback 5.05693 -1.42733 -5.80486
upperback -1.85773 -2.33658 -1.533
thorax -4.60424 -0.992322 1.86596
lowerneck -9.27985 -10.5639 -14.8744
upperneck 26.8338 -14.592 11.8829
head 12.4501 -6.50317 4.91177
rclavicle -1.58989e-014 1.38528e-014
rhumerus -41.6329 -1.04551 -84.7665
rradius 29.127
rwrist 9.12363
rhand -17.4795 14.1225
rfingers 7.12502
rthumb 8.77265 -15.6751
lclavicle -1.58989e-014 1.38528e-014
lhumerus -32.1335 5.95931 84.4083
lradius 25.5754
lwrist -1.80119
lhand -12.0615 13.1823
lfingers 7.12502
lthumb 13.9977 42.691
rfemur -26.025 -2.16537 22.5253
rtibia 29.3378
rfoot -31.5759 -33.3601
rtoes 33.4364
lfemur 13.3995 1.26093 -32.7157
ltibia 10.5682
lfoot -11.675 15.2895
ltoes -12.5234
437
root 16.0422 15.85 -13.1546 -190.178 61.8246 -192.096
lowerback 5.01279 -1.38306 -5.63661
upperback -1.86613 -2.26365 -1.50941
thorax -4.59801 -0.961647 1.78958
lowerneck -9.15098 -10.7127 -14.9309
upperneck 26.8766 -14.8446 11.9797
head 12.4987 -6.61314 4.91996
rclavicle -8.10154e-015 -3.73342e-015
rhumerus -41.792 -1.88466 -84.3664
rradius 29.0593
rwrist 9.92559
rhand -17.1515 14.3788
rfingers 7.12502
rthumb 9.08914 -15.4053
lclavicle -8.10154e-015 -3.73342e-015
lhumerus -32.326 6.38747 84.2657
lradius 25.1932
lwrist -2.02428
lhand -12.2017 13.1617
lfingers 7.12502
lthumb 13.8626 42.6797
rfemur -25.5493 -2.10416 22.7486
rtibia 29.2647
rfoot -31.3189 -32.9706
rtoes 33.5498
lfemur 12.7072 1.8445 -32.4307
ltibia 12.5972
lfoot -11.736 15.0923
ltoes -13.216
438
root 16.1317 15.8546 -13.1917 -189.93 62.3484 -191.762
lowerback 4.8461 -1.3427 -5.41511
upperback -1.85246 -2.18148 -1.41224
thorax -4.4982 -0.930645 1.75519
lowerneck -8.98516 -10.8116 -14.9868
upperneck 26.808 -14.9973 11.9842
head 12.4689 -6.69527 4.9074
rclavicle 1.15879e-014 1.36789e-014
rhumerus -41.8643 -2.0663 -84.1799
rradius 28.8442
rwrist 10.2613
rhand -17.4262 14.2349
rfingers 7.12502
rthumb 8.82409 -15.5607
lclavicle 1.15879e-014 1.36789e-014
lhumerus -32.5271 7.23401 83.9705
lradius 24.6874
lwrist -2.86726
lhand -12.3211 12.8338
lfingers 7.12502
lthumb 13.7475 42.3596
rfemur -25.0591 -2.00248 23.101
rtibia 29.1398
rfoot -31.1162 -32.521
rtoes 33.7778
lfemur 12.0142 2.37609 -32.0375
ltibia 14.6151
lfoot -11.797 14.7991
ltoes -14.8356
439
root 16.2171 15.8642 -13.2227 -189.23 62.8713 -191.053
lowerback 4.72611 -1.31812 -5.09134
upperback -1.93175 -2.12052 -1.26301
thorax -4.52171 -0.907893 1.72224
lowerneck -8.80955 -10.892 -14.9452
upperneck 26.8157 -15.1271 11.9248
head 12.4483 -6.76143 4.86181
rclavicle 6.40498e-014 1.32937e-014
rhumerus -41.9005 -1.95448 -84.0574
rradius 28.6476
rwrist 10.2039
rhand -17.6703 13.9182
rfingers 7.12502
rthumb 8.58855 -15.8872
lclavicle 6.40498e-014 1.32937e-014
lhumerus -32.8166 7.66838 83.7675
lradius 24.1842
lwrist -3.44551
lhand -12.4833 12.3316
lfingers 7.12502
lthumb 13.5913 41.868
rfemur -24.7165 -1.8035 23.6515
rtibia 29.0046
rfoot -30.6305 -32.4393
rtoes 33.4669
lfemur 11.2324 2.76022 -31.419
ltibia 16.4765
lfoot -11.887 14.4194
ltoes -16.1581
440
root 16.3005 15.8762 -13.2524 -188.618 63.3663 -190.384
lowerback 4.72187 -1.2995 -4.83597
upperback -2.00731 -2.07871 -1.0979
thorax -4.60283 -0.890979 1.7486
lowerneck -8.67489 -10.9908 -15.0252
upperneck 26.8894 -15.283 11.9466
head 12.4874 -6.83894 4.86289
rclavicle 2.21606e-014 -1.35919e-014
rhumerus -41.8693 -1.86367 -83.8982
rradius 28.4243
rwrist 10.1147
rhand -17.6747 13.7314
rfingers 7.12502
rthumb 8.58425 -16.0741
lclavicle 2.21606e-014 -1.35919e-014
lhumerus -33.1354 8.06368 83.6624
lradius 23.7261
lwrist -3.85098
lhand -12.5615 12.0418
lfingers 7.12502
lthumb 13.5158 41.5832
rfemur -24.3245 -1.66919 24.1826
rtibia 28.8358
rfoot -29.9072 -32.6339
rtoes 32.581
lfemur 10.4991 3.20333 -30.8026
ltibia 18.33
lfoot -12.0637 13.9983
ltoes -15.0036
441
root 16.3847 15.886 -13.2842 -188.477 63.8291 -190.221
lowerback 4.6334 -1.27247 -4.73805
upperback -2.01307 -2.02985 -1.04011
thorax -4.56257 -0.870385 1.7475
lowerneck -8.60475 -11.074 -14.9736
upperneck 26.8936 -15.4207 11.9284
head 12.4913 -6.89995 4.82539
rclavicle -4.63634e-014 3.97569e-015
rhumerus -41.7973 -1.98527 -83.7436
rradius 28.2133
rwrist 10.2059
rhand -17.7087 13.7995
rfingers 7.12502
rthumb 8.5515 -16.0073
lclavicle -4.63634e-014 3.97569e-015
lhumerus -33.353 8.61048 83.4085
lradius 23.2623
lwrist -4.37943
lhand -12.5168 11.7052
lfingers 7.12502
lthumb 13.5589 41.2437
rfemur -23.9035 -1.69567 24.463
rtibia 28.65
rfoot -28.9269 -32.776
rtoes 31.4487
lfemur 9.80794 3.61135 -30.4667
ltibia 20.1821
lfoot -12.166 13.6105
ltoes -13.437
442
root 16.468 15.8923 -13.3153 -188.184 64.3797 -189.776
lowerback 4.60098 -1.24729 -4.44277
upperback -1.95942 -1.97388 -0.996346
thorax -4.4988 -0.854158 1.62197
lowerneck -8.5657 -11.0961 -14.7551
upperneck 26.8449 -15.4884 11.8888
head 12.4487 -6.91599 4.76326
rclavicle 4.16112e-014 -4.00054e-015
rhumerus -41.7044 -2.2444 -83.6353
rradius 28.0471
rwrist 10.5075
rhand -17.7319 14.0034
rfingers 7.12502
rthumb 8.52903 -15.8044
lclavicle 4.16112e-014 -4.00054e-015
lhumerus -33.5931 9.01856 83.0581
lradius 22.9876
lwrist -4.67428
lhand -12.4539 11.3878
lfingers 7.12502
lthumb 13.6196 40.9223
rfemur -23.3972 -1.55504 24.8636
rtibia 28.5373
rfoot -28.2887 -32.7031
rtoes 30.9969
lfemur 9.28837 4.26264 -29.9219
ltibia 21.8777
lfoot -11.8696 13.1313
ltoes -13.1069
443
root 16.5514 15.8966 -13.3446 -187.67 64.9645 -189.044
lowerback 4.6387 -1.22782 -4.03555
upperback -1.9207 -1.92176 -0.892312
thorax -4.4911 -0.841087 1.49868
lowerneck -8.48148 -11.1224 -14.8516
upperneck 26.8773 -15.5678 12.0508
head 12.484 -6.94541 4.83278
rclavicle -7.05103e-015 -3.03147e-015
rhumerus -41.675 -2.37722 -83.588
rradius 27.9908
rwrist 10.5836
rhand -17.6193 14.1401
rfingers 7.12502
rthumb 8.63769 -15.6632
lclavicle -7.05103e-015 -3.03147e-015
lhumerus -33.8939 9.43596 82.7518
lradius 22.7941
lwrist -4.9686
lhand -12.2493 11.3089
lfingers 7.12502
lthumb 13.8167 40.8301
rfemur -22.8536 -1.36807 25.4
rtibia 28.4628
rfoot -27.9068 -32.5712
rtoes 30.8327
lfemur 8.86583 5.10538 -29.1834
ltibia 23.4607
lfoot -11.3094 12.5615
ltoes -13.0775
444
root 16.633 15.8998 -13.3712 -187.841 65.5014 -189.202
lowerback 4.56682 -1.19718 -4.06231
upperback -1.88063 -1.87725 -0.875526
thorax -4.4096 -0.820397 1.525
lowerneck -8.50903 -11.2302 -15.1692
upperneck 26.9818 -15.7629 12.3601
head 12.6306 -7.02669 4.97059
rclavicle 4.42599e-014 -1.10077e-014
rhumerus -41.5701 -2.28832 -83.655
rradius 28.042
rwrist 10.3174
rhand -17.2357 14.1867
rfingers 7.12502
rthumb 9.00792 -15.601
lclavicle 4.42599e-014 -1.10077e-014
lhumerus -34.1283 9.90245 82.4716
lradius 22.5766
lwrist -5.40927
lhand -12.2114 11.1336
lfingers 7.12502
lthumb 13.8532 40.6522
rfemur -22.4843 -1.3897 25.5472
rtibia 28.3818
rfoot -27.5288 -32.319
rtoes 30.5968
lfemur 8.30843 5.90689 -28.8615
ltibia 25.0135
lfoot -10.7478 12.0436
ltoes -13.3514
445
root 16.7143 15.9031 -13.3983 -187.578 66.0846 -188.694
lowerback 4.65666 -1.18831 -3.79583
upperback -1.76909 -1.84953 -0.804602
thorax -4.35098 -0.817034 1.44818
lowerneck -8.60633 -11.3087 -15.3136
upperneck 27.0474 -15.914 12.5769
head 12.7422 -7.08033 5.04823
rclavicle 7.07743e-015 3.97569e-015
rhumerus -41.428 -2.1718 -83.7553
rradius 28.1208
rwrist 10.2355
rhand -17.0458 14.2026
rfingers 7.12502
rthumb 9.19111 -15.5771
lclavicle 7.07743e-015 3.97569e-015
lhumerus -34.3527 10.1915 82.2536
lradius 22.5279
lwrist -5.65245
lhand -12.3151 11.1598
lfingers 7.12502
lthumb 13.7533 40.6852
rfemur -21.9039 -1.41508 25.9941
rtibia 28.2904
rfoot -27.2636 -32.0713
rtoes 30.2824
lfemur 7.97253 6.70946 -28.2005
ltibia 26.5395
lfoot -10.2445 11.55
ltoes -13.4985
446
root 16.7978 15.9049 -13.4282 -187.002 66.664 -187.851
lowerback 4.715 -1.20837 -3.39653
upperback -1.68478 -1.84948 -0.682717
thorax -4.3036 -0.829754 1.35143
lowerneck -8.65201 -11.3328 -15.2553
upperneck 27.1216 -15.9617 12.5611
head 12.783 -7.09464 5.02368
rclavicle -5.88865e-014 -6.03808e-015
rhumerus -41.3171 -2.16707 -83.7432
rradius 28.1474
rwrist 10.3926
rhand -17.078 14.2651
rfingers 7.12502
rthumb 9.16006 -15.516
lclavicle -5.88865e-014 -6.03808e-015
lhumerus -34.6542 9.99723 82.313
lradius 22.7298
lwrist -5.29674
lhand -12.1238 11.9133
lfingers 7.12502
lthumb 13.9377 41.4262
rfemur -21.3137 -1.42279 26.5718
rtibia 28.2539
rfoot -27.0327 -31.8622
rtoes 30.0358
lfemur 7.7008 7.4799 -27.4119
ltibia 28.0179
lfoot -9.67457 11.1662
ltoes -13.6574
447
root 16.8784 15.9041 -13.4559 -186.542 67.2299 -187.288
lowerback 4.7328 -1.21374 -3.10302
upperback -1.71707 -1.83765 -0.603164
thorax -4.35363 -0.830421 1.26952
lowerneck -8.59946 -11.3524 -15.1858
upperneck 27.2405 -15.9901 12.4548
head 12.8076 -7.11097 4.9714
rclavicle -7.39067e-014 -1.14798e-014
rhumerus -41.3824 -2.16149 -83.721
rradius 28.2741
rwrist 10.4548
rhand -16.9746 14.4043
rfingers 7.12502
rthumb 9.25987 -15.3723
lclavicle -7.39067e-014 -1.14798e-014
lhumerus -35.0719 9.65003 82.3487
lradius 22.902
lwrist -4.83518
lhand -11.5579 12.6182
lfingers 7.12502
lthumb 14.483 42.0927
rfemur -20.9001 -1.47833 27.0271
rtibia 28.2239
rfoot -26.7592 -31.6407
rtoes 30.0392
lfemur 7.25486 8.23212 -26.7585
ltibia 29.5068
lfoot -8.89654 10.7876
ltoes -13.8133
448
root 16.954 15.9009 -13.4796 -186.657 67.8027 -187.319
lowerback 4.83157 -1.17976 -3.05558
upperback -1.73879 -1.79357 -0.594727
thorax -4.43524 -0.808298 1.25097
lowerneck -8.53919 -11.3927 -15.2486
upperneck 27.326 -16.0753 12.5313
head 12.8606 -7.14667 5.00159
rclavicle 3.47291e-015 3.62782e-015
rhumerus -41.4663 -2.10189 -83.7549
rradius 28.5233
rwrist 10.345
rhand -16.8956 14.4751
rfingers 7.12502
rthumb 9.33606 -15.2981
lclavicle 3.47291e-015 3.62782e-015
lhumerus -35.4066 9.43954 82.2605
lradius 22.9565
lwrist -4.60873
lhand -11.1505 12.7015
lfingers 7.12502
lthumb 14.8755 42.1475
rfemur -20.5343 -1.66434 27.2398
rtibia 28.237
rfoot -26.2809 -31.3317
rtoes 29.8906
lfemur 6.79972 9.07992 -26.3126
ltibia 30.9992
lfoot -7.96275 10.3144
ltoes -13.8343
